<svg xmlns="http://www.w3.org/2000/svg" viewBox="0 0 512 512">
  <g transform="translate(80, 40) scale(0.28)">
    <path fill="#fb6" stroke="#fc850d" stroke-width="3" d="M705.53,315.18c-.67-12.59-11.08-22.45-23.69-22.45s-23.02,9.86-23.69,22.45l-2.06-.11c.73-13.68,12.04-24.4,25.75-24.4s25.03,10.72,25.75,24.4l-2.06.11Z"/>
    <circle fill="#fb6" cx="681.84" cy="315.13" r="7.51"/>
    <path fill="#fc850d" d="M726.17,466.72l-6.47-12.31-.08-.15-.34-.66h-.63l-12.12-23.08-12.46-23.73h-2.06v-3.92l-10.4-19.81-12.46-23.73h-1.9v-3.62l-5.87-11.18c-2.68-5.1-7.96-8.29-13.72-8.29h-188.28c2.51,11.91,12.1,21.2,24.16,23.29,2.79,13.46,11.05,23.53,24.72,23.53h0c2.53,13.56,12.02,23.73,24.76,23.73h0c2.53,13.56,13.17,23.73,25.91,23.73h-1.15c2.53,13.56,13.17,23.73,25.91,23.73h40.45c3.1,1.09,5.62,3.44,6.93,6.44.03.06.06.11.08.17,1.27,3.02,4.08,5.11,7.31,5.63l44.58,7.15,23.02,3.69h25.68l-5.57-10.61Z"/>
    <path fill="#fb6" d="M718.14,337.9c-5.63,0-10.79,3.12-13.41,8.1l-5.97,11.37v2.93h-1.89l-12.01,22.87-.45.87h.91l.14.28,9.36,17.82,1.98,3.78.08.15.89,1.7,11.48,21.88.08.15.89,1.69h.01l10.79,20.55.34.66.08.15.54,1.04h.37s5.55,10.59,5.55,10.59l.67,1.28c2.62-.82,4.82-2.72,5.9-5.3.03-.06.05-.11.08-.17,1.09-2.51,3.04-4.56,5.47-5.8l1.47.05h40.43c12.52,0,23.02-9.84,25.77-23.06,12.44-.34,22.77-10.4,25.25-23.73h0c12.74,0,22.23-10.17,24.76-23.73h0c13.43,0,21.53-9.73,24.56-22.84.01-.07.03-.14.05-.21h.16c-.01.07-.03.14-.05.21,12.06-2.1,21.64-11.39,24.15-23.29h-188.49Z"/>
  </g>
</svg>
